<svg width="32" height="32" fill="none" xmlns="http://www.w3.org/2000/svg"><path d="m28.962 28.003-2.666-7.995h-8.959a1.333 1.333 0 0 1-1.333-1.333v-1.332h9.331v-2.665h-9.33V10.49a5.333 5.333 0 0 0 3.956-5.833A5.329 5.329 0 0 0 14.67 0a5.333 5.333 0 0 0-5.29 4.658 5.329 5.329 0 0 0 3.957 5.833v8.184a3.997 3.997 0 0 0 4 3.997h1.212a7.993 7.993 0 0 1-5.777 6.38A8 8 0 0 1 2.737 22.4a7.992 7.992 0 0 1 3.63-7.803 8 8 0 0 1 4.305-1.252V10.68a10.667 10.667 0 0 0-9.725 6.268A10.656 10.656 0 0 0 7.768 31.6a10.667 10.667 0 0 0 11.06-3.401c1.32-1.571 2.16-3.49 2.416-5.526h3.13l2.666 7.995H32v-2.665h-3.038ZM12.005 5.35a2.665 2.665 0 0 1 4.551-1.884 2.664 2.664 0 0 1-1.885 4.549 2.666 2.666 0 0 1-2.666-2.665Z" fill="#0C4BA0"/></svg>