<svg width="36" height="28" viewBox="0 0 36 28" fill="none" xmlns="http://www.w3.org/2000/svg">
<path d="M7.0675 13.4475C3.15 13.4475 0.5 10.7175 0.5 6.6725C0.5 3.0325 3.54 0 7.6575 0C12.1675 0 15.5 3.64 15.5 9.2C15.5 21.8375 6.285 26.8925 0.5 27.5V21.94C4.4225 21.2325 8.8325 17.29 9.03 12.94C8.8325 13.04 8.05 13.4475 7.0675 13.4475ZM27.0675 13.4475C23.1475 13.4475 20.5 10.7175 20.5 6.6725C20.5 3.0325 23.54 0 27.6575 0C32.1675 0 35.5 3.64 35.5 9.2C35.5 21.8375 26.285 26.8925 20.5 27.5V21.94C24.4225 21.2325 28.8325 17.29 29.03 12.94C28.8325 13.04 28.05 13.4475 27.0675 13.4475Z" fill="#333333"/>
</svg>
