<svg width="32" height="32" fill="none" xmlns="http://www.w3.org/2000/svg"><path d="M25.333 5.333h-1.466A6.679 6.679 0 0 0 17.333 0h-2.666a6.679 6.679 0 0 0-6.534 5.333H6.667A6.675 6.675 0 0 0 0 12v13.333A6.674 6.674 0 0 0 6.667 32h18.666A6.674 6.674 0 0 0 32 25.333V12a6.675 6.675 0 0 0-6.667-6.667ZM14.667 2.667h2.666a4 4 0 0 1 3.755 2.666H10.912a4 4 0 0 1 3.755-2.666ZM6.667 8h18.666a4 4 0 0 1 4 4v4H2.667v-4a4 4 0 0 1 4-4Zm18.666 21.333H6.667a4 4 0 0 1-4-4v-6.666h12V20a1.333 1.333 0 1 0 2.666 0v-1.333h12v6.666a4 4 0 0 1-4 4Z" fill="#E98509"/></svg>