<svg width="32" height="32" fill="none" xmlns="http://www.w3.org/2000/svg"><g clip-path="url(#a)" fill="#319B17"><path d="M12 16a8 8 0 1 0-8-8 8.008 8.008 0 0 0 8 8Zm0-13.333a5.333 5.333 0 1 1 0 10.666 5.333 5.333 0 0 1 0-10.666ZM12 18.666a12.015 12.015 0 0 0-12 12 1.333 1.333 0 0 0 2.667 0 9.333 9.333 0 0 1 18.666 0 1.333 1.333 0 0 0 2.667 0 12.015 12.015 0 0 0-12-12ZM29.333 10.5a2.81 2.81 0 0 0-2.666 2.933A2.809 2.809 0 0 0 24 10.5a2.81 2.81 0 0 0-2.667 2.933c0 2.307 3.008 5.01 4.507 6.212a1.322 1.322 0 0 0 1.653 0C28.992 18.445 32 15.74 32 13.433a2.809 2.809 0 0 0-2.667-2.933Z"/></g><defs><clipPath id="a"><path fill="#fff" d="M0 0h32v32H0z"/></clipPath></defs></svg>