<svg width="64" height="64" viewBox="0 0 64 64" fill="none" xmlns="http://www.w3.org/2000/svg">
<path fill-rule="evenodd" clip-rule="evenodd" d="M10 0H54C59.5228 0 64 4.47715 64 10V54C64 59.5228 59.5228 64 54 64H10C4.47715 64 0 59.5228 0 54V10C0 4.47715 4.47715 0 10 0ZM33.3837 24.0148C30.5177 25.2068 24.7897 27.6741 16.1998 31.4166C14.805 31.9713 14.0743 32.5139 14.0078 33.0445C13.8953 33.9413 15.0183 34.2944 16.5475 34.7752C16.7555 34.8406 16.971 34.9084 17.192 34.9802C18.6964 35.4693 20.7202 36.0414 21.7723 36.0641C22.7267 36.0847 23.7918 35.6913 24.9678 34.8838C32.9936 29.4661 37.1366 26.7278 37.3967 26.6688C37.5802 26.6271 37.8345 26.5747 38.0068 26.7279C38.1791 26.881 38.1621 27.171 38.1439 27.2488C38.0326 27.7231 33.6246 31.8212 31.3434 33.9419C30.6323 34.6031 30.1278 35.0721 30.0247 35.1792C29.7937 35.4191 29.5583 35.6461 29.332 35.8642C27.9343 37.2116 26.8862 38.222 29.3901 39.872C30.5933 40.6649 31.5562 41.3206 32.5167 41.9748C33.5658 42.6892 34.6121 43.4017 35.9659 44.2891C36.3108 44.5152 36.6402 44.7501 36.961 44.9788C38.1819 45.8491 39.2787 46.6311 40.6337 46.5064C41.4211 46.4339 42.2344 45.6936 42.6474 43.4854C43.6236 38.267 45.5423 26.9602 45.9858 22.3009C46.0246 21.8927 45.9757 21.3703 45.9365 21.141C45.8973 20.9116 45.8152 20.5849 45.5171 20.343C45.1641 20.0565 44.6191 19.9961 44.3753 20.0002C43.2671 20.0199 41.5667 20.6112 33.3837 24.0148Z" fill="white"/>
</svg>
