<svg width="68" height="46" viewBox="0 0 68 46" fill="none" xmlns="http://www.w3.org/2000/svg">
<path d="M66.8027 46C67.5888 46 68.0675 45.1347 67.6499 44.4687L40.5908 1.32046C40.2036 0.7031 39.3074 0.69385 38.9076 1.30309L23.8449 24.2557C23.581 24.6579 23.0682 24.8151 22.6242 24.6302L14.8543 21.3927C14.3864 21.1977 13.8467 21.3837 13.5981 21.8255L0.83827 44.5097C0.463305 45.1763 0.945018 46 1.70985 46H66.8027Z" fill="#0C4BA0"/>
<path d="M16.9413 7.93677C16.8736 7.78775 16.849 7.62279 16.8702 7.46053C16.8915 7.29827 16.9576 7.14518 17.0613 7.01857C17.165 6.89196 17.302 6.79687 17.4569 6.74406C17.6118 6.69125 17.7784 6.68283 17.9378 6.71973L21.2009 7.47572L23.674 5.21683C23.7947 5.10627 23.944 5.0317 24.1049 5.00157C24.2658 4.97144 24.4319 4.98694 24.5845 5.04632C24.7371 5.10571 24.87 5.20661 24.9682 5.3376C25.0663 5.4686 25.1259 5.62446 25.1401 5.78755L25.429 9.12522L28.3417 10.7783C28.4841 10.8591 28.6011 10.9781 28.6793 11.1219C28.7576 11.2656 28.7941 11.4285 28.7847 11.5919C28.7752 11.7553 28.7202 11.9129 28.6259 12.0467C28.5316 12.1805 28.4017 12.2852 28.2509 12.349L25.1662 13.655L24.4945 16.9367C24.4617 17.0971 24.3846 17.2451 24.2721 17.3639C24.1595 17.4828 24.0159 17.5678 23.8576 17.6093C23.6992 17.6508 23.5324 17.6472 23.376 17.5988C23.2196 17.5504 23.0798 17.4592 22.9726 17.3355L20.7767 14.807L17.4481 15.1801C17.2857 15.1981 17.1214 15.1704 16.9738 15.1C16.8263 15.0296 16.7013 14.9194 16.6131 14.7818C16.5248 14.6442 16.4768 14.4846 16.4744 14.3212C16.472 14.1577 16.5154 13.9969 16.5995 13.8567L18.3255 10.9873L16.9413 7.93677Z" fill="#F98060"/>
</svg>
