<svg width="64" height="64" viewBox="0 0 64 64" fill="none" xmlns="http://www.w3.org/2000/svg">
<path fill-rule="evenodd" clip-rule="evenodd" d="M0 10C0 4.47715 4.47715 0 10 0H54C59.5228 0 64 4.47715 64 10V54C64 59.5228 59.5228 64 54 64H10C4.47715 64 0 59.5228 0 54V10ZM18.24 18.24C16 20.5013 16 24.1173 16 31.36V32.64C16 39.872 16 43.488 18.24 45.76C20.5013 48 24.1173 48 31.36 48H32.64C39.872 48 43.488 48 45.76 45.76C48 43.4987 48 39.8827 48 32.64V31.36C48 24.128 48 20.512 45.76 18.24C43.4987 16 39.8827 16 32.64 16H31.36C24.128 16 20.512 16 18.24 18.24Z" fill="white"/>
<path d="M33.024 39.0506C25.728 39.0506 21.568 34.0586 21.3973 25.7386H25.0667C25.184 31.84 27.872 34.4213 30.0053 34.9546V25.7386H33.4507V30.9973C35.552 30.7733 37.7707 28.3733 38.5173 25.728H41.952C41.672 27.0973 41.1125 28.3942 40.3087 29.5376C39.5048 30.681 38.4738 31.6463 37.28 32.3733C38.6122 33.0364 39.7887 33.9743 40.7319 35.1253C41.6751 36.2763 42.3636 37.6141 42.752 39.0506H38.9653C38.1547 36.5226 36.128 34.56 33.4507 34.2933V39.0506H33.024Z" fill="white"/>
</svg>
