<svg width="162" height="28" viewBox="0 0 162 28" fill="none" xmlns="http://www.w3.org/2000/svg">
<path d="M13.5 27C20.9558 27 27 20.9558 27 13.5C27 6.04416 20.9558 0 13.5 0C6.04416 0 0 6.04416 0 13.5C0 20.9558 6.04416 27 13.5 27Z" fill="#242424"/>
<path d="M15.49 7.55965H14.12C11.78 7.55965 10.61 8.72965 10.61 10.4896C10.61 12.4396 11.39 13.4196 13.15 14.5896L14.51 15.5896L10.61 21.5896H7.48999L11.2 16.1296C9.04999 14.5696 7.87999 13.1996 7.87999 10.6596C7.87999 7.53965 10.03 5.38965 14.12 5.38965H18.22V21.5896H15.49V7.55965Z" fill="white"/>
<path d="M158 23.5H161.34V8.98996H156.63L153.49 18.65L150.65 8.99996H145.65V23.5H148.57V12.66L151.71 23.5H154.51L158 12.66V23.5ZM134.47 28C137.67 28 138.85 25.72 139.83 22.75L144.36 8.99996H141.05L137.84 19.9L134.64 8.99996H131L136 24.14C135.831 24.491 135.563 24.7849 135.229 24.9857C134.895 25.1864 134.509 25.2852 134.12 25.27C133.836 25.2822 133.552 25.2371 133.286 25.1375C133.02 25.0378 132.776 24.8856 132.57 24.69V27.49C133.12 27.8859 133.796 28.0672 134.47 28ZM127.56 23.53H131.45L125.94 15.71L130.79 8.99996H127.33L122.48 15.69V8.99996H119.05V23.5H122.48V16.38L127.56 23.53ZM104.54 8.99996V23.5H107.54L112.85 14.5V23.5H116.2V8.99996H113.2L107.89 18V8.99996H104.54ZM102.54 11.71V8.99996H91V11.7H95V23.5H98.43V11.7L102.54 11.71ZM87.25 23.5H91.15L85.64 15.68L90.48 8.99996H87L82.16 15.69V8.99996H78.74V23.5H82.18V16.38L87.25 23.5ZM72.55 20C72.2695 20.3804 71.8986 20.6848 71.4708 20.8856C71.043 21.0864 70.5718 21.1773 70.1 21.15C69.8111 21.174 69.5204 21.135 69.2481 21.0357C68.9758 20.9363 68.7283 20.7789 68.5229 20.5744C68.3174 20.3699 68.1589 20.1231 68.0582 19.8513C67.9576 19.5794 67.9172 19.289 67.94 19C67.94 17.3 69.12 16.69 72.06 16.69H72.55V20ZM76 13.61C76 10.09 74.21 8.75996 70.57 8.75996C68.7828 8.74884 67.0241 9.20748 65.47 10.09V12.94C66.8727 12.0331 68.5 11.5345 70.17 11.5C71.81 11.5 72.56 12.08 72.56 13.64V14.44H72C66.75 14.44 64.41 16.17 64.41 19.12C64.41 22.07 66.2 23.7 68.85 23.7C69.5054 23.7603 70.166 23.67 70.7813 23.436C71.3965 23.202 71.9502 22.8306 72.4 22.35H72.54C72.5795 22.7424 72.6669 23.1286 72.8 23.5H76.15C76.0416 22.3365 75.9915 21.1684 76 20V13.61ZM56.47 21.08C54.65 21.08 53.73 19.61 53.73 16.26C53.73 12.91 54.73 11.42 56.64 11.42C58.55 11.42 59.44 12.89 59.44 16.23C59.44 19.57 58.46 21.08 56.47 21.08ZM53.47 8.99996H50.3V27.68H53.73V21.8C54.1092 22.4131 54.6392 22.9188 55.2694 23.2689C55.8996 23.619 56.609 23.8019 57.33 23.8C60.68 23.8 62.99 21.12 62.99 16.24C62.99 11.36 60.74 8.69996 57.51 8.69996C56.7316 8.69251 55.9649 8.88889 55.286 9.26958C54.6071 9.65027 54.0396 10.202 53.64 10.87L53.47 8.99996ZM34.22 3.45996V23.46H37.71V6.16996H43.93V23.5H47.42V3.49996L34.22 3.45996Z" fill="#242424"/>
</svg>
