<svg width="172" height="30" viewBox="0 0 172 30" fill="none" xmlns="http://www.w3.org/2000/svg">
<path d="M60.6182 26.5382V29.4914H48.5856V12.1626H60.3985V15.1158H51.9538V19.2894H59.2514V22.0229H51.9538V26.5382H60.6182Z" fill="#0C4BA0"/>
<path d="M64.5376 12.1626L69.2237 25.4887L73.861 12.1626H77.3999L70.8345 29.4914H67.5884L60.9986 12.1626H64.5376Z" fill="#0C4BA0"/>
<path d="M90.7939 26.5382V29.4914H78.7614V12.1626H90.5743V15.1158H82.1295V19.2894H89.4271V22.0229H82.1295V26.5382H90.7939Z" fill="#0C4BA0"/>
<path d="M92.9316 29.4914V12.1626H100.595C101.393 12.1626 102.125 12.3253 102.792 12.6507C103.475 12.9762 104.061 13.4155 104.549 13.9687C105.054 14.5219 105.436 15.1402 105.696 15.8236C105.973 16.507 106.111 17.2067 106.111 17.9226C106.111 18.6548 105.981 19.3626 105.721 20.046C105.477 20.7131 105.119 21.2989 104.647 21.8033C104.175 22.3077 103.622 22.6982 102.987 22.9748L106.941 29.4914H103.231L99.6679 23.6826H96.2997V29.4914H92.9316ZM96.2997 20.7294H100.522C100.945 20.7294 101.319 20.6073 101.645 20.3633C101.97 20.1029 102.231 19.7612 102.426 19.3382C102.621 18.9151 102.719 18.4433 102.719 17.9226C102.719 17.3694 102.605 16.8894 102.377 16.4826C102.149 16.0595 101.856 15.726 101.498 15.4819C101.157 15.2379 100.782 15.1158 100.376 15.1158H96.2997V20.7294Z" fill="#0C4BA0"/>
<path d="M108.675 29.4914V12.1626H112.043V26.5382H120.878V29.4914H108.675Z" fill="#F98060"/>
<path d="M127.15 12.1626H130.567L136.938 29.4914H133.472L131.861 25.1714H125.808L124.222 29.4914H120.756L127.15 12.1626ZM131.251 22.804L128.859 15.6528L126.369 22.804H131.251Z" fill="#F98060"/>
<path d="M141.718 18.3619V29.4914H138.35V12.1626H141.035L149.992 23.585V12.187H153.36V29.4914H150.554L141.718 18.3619Z" fill="#F98060"/>
<path d="M156.477 29.4914V12.1626H162.774C164.661 12.1626 166.24 12.5531 167.509 13.3341C168.778 14.0989 169.73 15.1402 170.364 16.4582C170.999 17.7599 171.316 19.208 171.316 20.8026C171.316 22.5599 170.966 24.0894 170.267 25.3911C169.567 26.6928 168.575 27.7016 167.289 28.4175C166.02 29.1334 164.515 29.4914 162.774 29.4914H156.477ZM167.924 20.8026C167.924 19.6799 167.72 18.6955 167.314 17.8494C166.907 16.987 166.321 16.3199 165.556 15.848C164.792 15.3599 163.864 15.1158 162.774 15.1158H159.845V26.5382H162.774C163.88 26.5382 164.816 26.2941 165.581 25.806C166.345 25.3016 166.923 24.6182 167.314 23.7558C167.72 22.8772 167.924 21.8928 167.924 20.8026Z" fill="#F98060"/>
<path d="M42.9383 30C43.7244 30 44.2031 29.1347 43.7855 28.4687L26.7603 1.32046C26.3731 0.703101 25.4769 0.693853 25.077 1.30309L15.7093 15.5778C15.4454 15.9799 14.9326 16.1372 14.4886 15.9522L9.97298 14.0707C9.50508 13.8757 8.96531 14.0617 8.71679 14.5035L0.838272 28.5097C0.463307 29.1763 0.945023 30 1.70985 30H42.9383Z" fill="#0C4BA0"/>
<g clip-path="url(#clip0_1607_408)">
<path d="M11.0485 5.17685C11.0044 5.07967 10.9884 4.97209 11.0022 4.86627C11.0161 4.76044 11.0592 4.6606 11.1268 4.57803C11.1945 4.49546 11.2838 4.43344 11.3848 4.399C11.4858 4.36456 11.5945 4.35906 11.6985 4.38313L13.8265 4.87617L15.4394 3.40298C15.5182 3.33088 15.6155 3.28224 15.7205 3.26259C15.8254 3.24294 15.9338 3.25305 16.0333 3.29178C16.1328 3.33051 16.2194 3.39631 16.2835 3.48175C16.3475 3.56718 16.3864 3.66883 16.3956 3.77519L16.584 5.95193L18.4836 7.03004C18.5765 7.08271 18.6528 7.16032 18.7038 7.25409C18.7549 7.34786 18.7787 7.45405 18.7725 7.56064C18.7664 7.66723 18.7305 7.76997 18.669 7.85724C18.6075 7.9445 18.5227 8.01281 18.4244 8.05443L16.4127 8.90612L15.9746 11.0464C15.9532 11.151 15.9029 11.2475 15.8295 11.325C15.7561 11.4025 15.6625 11.458 15.5592 11.485C15.4559 11.5121 15.3471 11.5097 15.2451 11.4782C15.1431 11.4466 15.052 11.3871 14.982 11.3065L13.5499 9.65742L11.3791 9.90077C11.2732 9.91252 11.166 9.89443 11.0698 9.84853C10.9736 9.80263 10.8921 9.73075 10.8345 9.641C10.777 9.55125 10.7457 9.44721 10.7441 9.3406C10.7425 9.234 10.7708 9.12908 10.8257 9.03768L11.9513 7.16635L11.0485 5.17685Z" fill="#F98060"/>
</g>
<defs>
<clipPath id="clip0_1607_408">
<rect width="10.1695" height="10.1695" fill="white" transform="translate(7.11865 7.86865) rotate(-50.689)"/>
</clipPath>
</defs>
</svg>
