<svg width="263" height="46" viewBox="0 0 263 46" fill="none" xmlns="http://www.w3.org/2000/svg">
<path d="M92.9479 40.692V45.2203H74.498V18.6494H92.6111V23.1777H79.6625V29.5771H90.8522V33.7686H79.6625V40.692H92.9479Z" fill="#0C4BA0"/>
<path d="M98.9577 18.6494L106.143 39.0828L113.254 18.6494H118.68L108.613 45.2203H103.636L93.5312 18.6494H98.9577Z" fill="#0C4BA0"/>
<path d="M139.217 40.692V45.2203H120.768V18.6494H138.881V23.1777H125.932V29.5771H137.122V33.7686H125.932V40.692H139.217Z" fill="#0C4BA0"/>
<path d="M142.495 45.2203V18.6494H154.246C155.469 18.6494 156.591 18.8989 157.614 19.3979C158.662 19.8969 159.56 20.5705 160.309 21.4188C161.082 22.267 161.669 23.2151 162.068 24.263C162.492 25.3108 162.704 26.3837 162.704 27.4814C162.704 28.6041 162.504 29.6894 162.105 30.7373C161.731 31.7602 161.182 32.6584 160.459 33.4318C159.735 34.2052 158.887 34.804 157.914 35.2281L163.976 45.2203H158.288L152.824 36.3134H147.66V45.2203H142.495ZM147.66 31.7851H154.134C154.783 31.7851 155.357 31.598 155.855 31.2238C156.354 30.8246 156.754 30.3007 157.053 29.652C157.352 29.0033 157.502 28.2798 157.502 27.4814C157.502 26.6331 157.327 25.8971 156.978 25.2734C156.629 24.6247 156.18 24.1133 155.631 23.739C155.107 23.3648 154.533 23.1777 153.909 23.1777H147.66V31.7851Z" fill="#0C4BA0"/>
<path d="M166.635 45.2203V18.6494H171.799V40.692H185.347V45.2203H166.635Z" fill="#F98060"/>
<path d="M194.964 18.6494H200.203L209.971 45.2203H204.657L202.187 38.5963H192.906L190.473 45.2203H185.159L194.964 18.6494ZM201.251 34.9662L197.584 24.001L193.767 34.9662H201.251Z" fill="#F98060"/>
<path d="M217.301 28.155V45.2203H212.137V18.6494H216.254L229.988 36.1637V18.6868H235.153V45.2203H230.849L217.301 28.155Z" fill="#F98060"/>
<path d="M239.931 45.2203V18.6494H249.587C252.481 18.6494 254.901 19.2482 256.847 20.4458C258.793 21.6184 260.252 23.2151 261.226 25.236C262.199 27.2319 262.685 29.4524 262.685 31.8974C262.685 34.5919 262.149 36.9371 261.076 38.9331C260.003 40.929 258.481 42.4759 256.51 43.5736C254.564 44.6714 252.256 45.2203 249.587 45.2203H239.931ZM257.483 31.8974C257.483 30.1759 257.171 28.6665 256.548 27.3691C255.924 26.0468 255.026 25.0239 253.853 24.3004C252.68 23.5519 251.258 23.1777 249.587 23.1777H245.096V40.692H249.587C251.283 40.692 252.718 40.3178 253.89 39.5693C255.063 38.7959 255.949 37.748 256.548 36.4257C257.171 35.0784 257.483 33.569 257.483 31.8974Z" fill="#F98060"/>
<path d="M66.8027 46C67.5888 46 68.0675 45.1347 67.6499 44.4687L40.5908 1.32046C40.2036 0.703101 39.3074 0.693851 38.9076 1.30309L23.8449 24.2557C23.581 24.6579 23.0682 24.8151 22.6242 24.6301L14.8543 21.3927C14.3864 21.1977 13.8467 21.3837 13.5981 21.8255L0.838272 44.5097C0.463307 45.1763 0.94502 46 1.70985 46H66.8027Z" fill="#0C4BA0"/>
<g clip-path="url(#clip0_2013_185)">
<path d="M16.9413 7.93677C16.8736 7.78775 16.849 7.62279 16.8702 7.46053C16.8915 7.29827 16.9576 7.14518 17.0613 7.01857C17.165 6.89196 17.302 6.79687 17.4569 6.74406C17.6118 6.69125 17.7784 6.68283 17.9378 6.71973L21.2009 7.47572L23.674 5.21683C23.7947 5.10627 23.944 5.0317 24.1049 5.00157C24.2658 4.97144 24.4319 4.98694 24.5845 5.04632C24.7371 5.10571 24.87 5.20661 24.9682 5.3376C25.0663 5.4686 25.1259 5.62446 25.1401 5.78755L25.429 9.12522L28.3417 10.7783C28.4841 10.8591 28.6011 10.9781 28.6793 11.1219C28.7576 11.2656 28.7941 11.4285 28.7847 11.5919C28.7752 11.7554 28.7202 11.9129 28.6259 12.0467C28.5316 12.1805 28.4017 12.2852 28.2509 12.349L25.1662 13.655L24.4945 16.9367C24.4617 17.0971 24.3846 17.2451 24.2721 17.3639C24.1595 17.4828 24.0159 17.5678 23.8576 17.6093C23.6992 17.6508 23.5324 17.6472 23.376 17.5988C23.2196 17.5504 23.0798 17.4592 22.9726 17.3355L20.7767 14.807L17.4481 15.1801C17.2857 15.1981 17.1214 15.1704 16.9738 15.1C16.8263 15.0296 16.7013 14.9194 16.6131 14.7818C16.5248 14.6442 16.4768 14.4846 16.4744 14.3212C16.472 14.1577 16.5154 13.9969 16.5995 13.8567L18.3255 10.9873L16.9413 7.93677Z" fill="#F98060"/>
</g>
<defs>
<clipPath id="clip0_2013_185">
<rect width="15.5932" height="15.5932" fill="white" transform="translate(10.915 12.0645) rotate(-50.689)"/>
</clipPath>
</defs>
</svg>
