<svg width="29" height="9" fill="none" xmlns="http://www.w3.org/2000/svg"><g clip-path="url(#a)" fill-rule="evenodd" clip-rule="evenodd"><path d="M25.26.544h-5.24c.282 1.752 1.972 3.391 3.831 3.391h4.17c.056-.17.056-.395.056-.565A2.794 2.794 0 0 0 25.26.544Z" fill="url(#b)"/><path d="M20.47 4.218v4.239h2.536V6.196h2.254c1.24 0 2.31-.848 2.648-1.978H20.47ZM11.455.544v7.913h2.254s.564 0 .845-.565l1.972-3.957h.282v4.522h2.535V.544H17.09s-.564.056-.845.565l-1.973 3.957h-.281V.544h-2.536ZM.75 8.457V.544h2.535s.733 0 1.127 1.13C5.427 4.67 5.54 5.066 5.54 5.066s.226-.735 1.127-3.392C7.061.544 7.793.544 7.793.544h2.535v7.913H7.793v-4.24h-.282l-1.408 4.24H4.976l-1.409-4.24h-.282v4.24H.75Z" fill="#319B17"/></g><defs><linearGradient id="b" x1="20.005" y1="2.24" x2="28.077" y2="2.24" gradientUnits="userSpaceOnUse"><stop stop-color="#00B4E6"/><stop offset="1" stop-color="#088CCB"/></linearGradient><clipPath id="a"><path fill="#fff" transform="translate(.75 .544)" d="M0 0h27.609v7.913H0z"/></clipPath></defs></svg>