<svg width="25" height="8" fill="none" xmlns="http://www.w3.org/2000/svg"><path fill-rule="evenodd" clip-rule="evenodd" d="M5.924 8h-2.05L2.336 1.6c-.073-.294-.228-.554-.456-.676A6.299 6.299 0 0 0 0 .246V0h3.304c.456 0 .798.37.855.8l.797 4.616L7.006 0H9L5.924 8Zm5.27 0H9l1.806-8H13l-1.806 8Zm3.718-5.672c.058-.418.408-.656.816-.656.641-.06 1.34.06 1.922.357L18 .36A4.867 4.867 0 0 0 16.194 0c-1.922 0-3.32 1.075-3.32 2.566 0 1.135.99 1.73 1.69 2.09.756.358 1.047.596.99.954 0 .537-.584.776-1.165.776-.7 0-1.4-.179-2.04-.478L12 7.58c.7.298 1.456.418 2.155.418 2.156.059 3.495-1.015 3.495-2.627 0-2.029-2.738-2.148-2.738-3.043ZM25 8l-1.575-8h-1.692c-.35 0-.7.246-.817.615L18 8h2.042l.407-1.169h2.51L23.191 8H25Zm-2.713-6L23 5h-2l1.287-3Z" fill="#0C4BA0"/></svg>