<svg width="25" height="14" fill="none" xmlns="http://www.w3.org/2000/svg"><path fill-rule="evenodd" clip-rule="evenodd" d="M12.25 12.6a7.822 7.822 0 0 1-4.5 1.4c-4.142 0-7.5-3.134-7.5-7s3.358-7 7.5-7c1.688 0 3.246.52 4.5 1.4a7.823 7.823 0 0 1 4.5-1.4c4.142 0 7.5 3.134 7.5 7s-3.358 7-7.5 7a7.822 7.822 0 0 1-4.5-1.4Z" fill="#ED0006"/><path fill-rule="evenodd" clip-rule="evenodd" d="M12.25 12.6c1.822-1.277 3-3.31 3-5.6 0-2.29-1.178-4.323-3-5.6a7.823 7.823 0 0 1 4.5-1.4c4.142 0 7.5 3.134 7.5 7s-3.358 7-7.5 7a7.822 7.822 0 0 1-4.5-1.4Z" fill="#F9A000"/><path fill-rule="evenodd" clip-rule="evenodd" d="M11.75 12.362A6.985 6.985 0 0 0 14.25 7a6.985 6.985 0 0 0-2.5-5.362A6.985 6.985 0 0 0 9.25 7c0 2.152.972 4.078 2.5 5.362Z" fill="#FF5E00"/></svg>