<svg width="36" height="25" fill="none" xmlns="http://www.w3.org/2000/svg"><path fill-rule="evenodd" clip-rule="evenodd" d="M10.924 16h-2.05L7.336 9.6c-.073-.294-.228-.554-.456-.676A6.298 6.298 0 0 0 5 8.246V8h3.304c.456 0 .798.37.855.8l.797 4.616L12.006 8H14l-3.076 8Zm5.27 0H14l1.806-8H18l-1.806 8Zm3.718-5.672c.058-.418.408-.656.816-.656.641-.06 1.34.06 1.922.357L23 8.36A4.867 4.867 0 0 0 21.194 8c-1.922 0-3.32 1.075-3.32 2.566 0 1.135.99 1.73 1.69 2.09.756.358 1.047.596.99.954 0 .537-.584.776-1.165.776-.7 0-1.4-.179-2.04-.478L17 15.58c.7.298 1.456.418 2.155.418 2.156.059 3.495-1.015 3.495-2.627 0-2.029-2.738-2.148-2.738-3.043ZM30 16l-1.575-8h-1.692c-.35 0-.7.246-.817.615L23 16h2.042l.407-1.169h2.51L28.191 16H30Zm-2.713-6L28 13h-2l1.287-3Z" fill="#0C4BA0"/></svg>