<svg width="26" height="26" fill="none" xmlns="http://www.w3.org/2000/svg"><path fill-rule="evenodd" clip-rule="evenodd" d="M0 0h26v26H0V0Z" fill="#fff"/><path fill-rule="evenodd" clip-rule="evenodd" d="M12.535 18.059a7.51 7.51 0 0 0 1.824-2.521A7.459 7.459 0 0 0 15 12.5a7.459 7.459 0 0 0-.641-3.038 7.507 7.507 0 0 0-1.824-2.52 7.5 7.5 0 1 0 0 11.118Z" fill="#3A9BD9"/><path fill-rule="evenodd" clip-rule="evenodd" d="M18.415 5a7.606 7.606 0 0 0-5.858 2.735h1.531c.21.252.404.518.579.794h-2.688a7.499 7.499 0 0 0-.438.795h3.562c.123.258.23.523.322.794H11.22c-.088.26-.162.525-.22.794h4.646a7.449 7.449 0 0 1-.22 3.97H11.22c.092.27.199.536.321.794h3.562c-.129.273-.275.539-.436.795h-2.688c.175.276.368.541.578.794h1.531c-.235.282-.49.548-.765.794A7.606 7.606 0 0 0 18.415 20C22.604 20 26 16.642 26 12.5 26 8.358 22.604 5 18.415 5ZM25 17.246c0-.136.11-.246.244-.246.135 0 .244.11.244.246 0 .135-.11.245-.244.245a.245.245 0 0 1-.244-.245Zm.244.186a.186.186 0 0 0 .185-.186.186.186 0 0 0-.185-.187.186.186 0 0 0-.186.187c0 .103.084.186.186.186Zm-.033-.079h-.05v-.216h.09c.02 0 .038 0 .055.011a.064.064 0 0 1 .027.054.06.06 0 0 1-.037.056l.04.095h-.056l-.032-.085h-.037v.085-.122h.028c.01 0 .021 0 .03-.004a.03.03 0 0 0 .013-.025.028.028 0 0 0-.012-.022c-.009-.005-.023-.004-.032-.004h-.027v.177Z" fill="#CC2131"/><path fill-rule="evenodd" clip-rule="evenodd" d="M23.016 14.649c0-.136.11-.246.244-.246s.243.11.243.246c0 .135-.109.245-.243.245a.245.245 0 0 1-.244-.245Zm.244.186a.186.186 0 0 0 .185-.186.186.186 0 0 0-.185-.187.186.186 0 0 0-.186.187c0 .103.083.186.186.186Zm-.033-.079h-.05v-.216h.09c.019 0 .038 0 .055.012a.064.064 0 0 1 .027.053.059.059 0 0 1-.037.056l.04.095h-.056l-.033-.085h-.036v.085-.122h.027c.01 0 .022 0 .03-.004a.03.03 0 0 0 .014-.025.027.027 0 0 0-.013-.022c-.008-.005-.022-.004-.032-.004h-.026v.177Zm-16.238.138h-.94l.559-2.964-1.286 2.964h-.857l-.156-2.947-.56 2.947h-.853l.728-3.856H5.09l.078 2.387 1.034-2.387H7.73l-.741 3.856Zm10.5-.038a2.42 2.42 0 0 1-.674.101c-.481 0-.744-.243-.744-.688 0-.088.01-.182.028-.281l.057-.307.044-.248.436-2.395h.934l-.135.72h.48l-.13.763h-.481l-.248 1.308a.746.746 0 0 0-.016.13c0 .162.098.232.32.232a.88.88 0 0 0 .254-.029l-.124.694Zm2.745-3.072c-.079-.031-.097-.031-.106-.034-.05-.01-.076-.017-.081-.018a.517.517 0 0 0-.095-.008c-.308 0-.53.138-.818.51l.083-.476h-.851l-.573 3.136h.94c.337-1.918.48-2.254.932-2.254.034 0 .073.003.119.008l.11.023.34-.887Zm-6.469.965c0 .396.222.669.724.874.385.158.444.204.444.346 0 .195-.17.283-.545.283-.284 0-.548-.038-.852-.124l-.13.724.041.007.175.032a7.15 7.15 0 0 0 .773.053c1.002 0 1.466-.33 1.466-1.046 0-.43-.194-.683-.67-.873-.399-.159-.445-.194-.445-.34 0-.17.158-.256.465-.256.187 0 .442.018.683.047l.136-.726a7.446 7.446 0 0 0-.837-.061c-1.063 0-1.431.482-1.428 1.06Zm-3.722 2.145h-.78l.018-.325c-.238.257-.555.38-.986.38-.509 0-.858-.35-.858-.857 0-.764.607-1.21 1.65-1.21.107 0 .243.01.383.025a.686.686 0 0 0 .037-.204c0-.207-.164-.285-.603-.285-.268 0-.571.034-.78.087l-.13.034-.085.02.13-.705c.469-.121.778-.167 1.125-.167.808 0 1.235.319 1.235.92 0 .155-.014.272-.077.621l-.196 1.113-.033.2-.024.159-.016.11-.01.084Zm-.685-1.397a1.714 1.714 0 0 0-.21-.013c-.533 0-.802.16-.802.477 0 .195.131.32.337.32.383 0 .659-.32.675-.784Zm3.768 1.33a3.644 3.644 0 0 1-.963.127c-1.05-.001-1.598-.483-1.598-1.405 0-1.077.697-1.87 1.642-1.87.774 0 1.268.444 1.268 1.14 0 .232-.034.457-.115.775H11.49a.601.601 0 0 0-.009.098c0 .364.279.55.825.55.335 0 .638-.062.975-.2l-.156.784Zm-.5-1.867c.005-.065.007-.118.007-.16 0-.254-.164-.404-.444-.404-.299 0-.513.2-.6.563l1.037.002Zm10.53.512c-.142 1.044-.865 1.506-1.826 1.506-1.063 0-1.492-.65-1.492-1.445 0-1.112.727-1.865 1.85-1.865.975 0 1.492.62 1.492 1.416 0 .193 0 .206-.025.388Zm-.969-.4c0-.329-.132-.639-.517-.639-.48 0-.777.571-.777 1.075 0 .426.204.711.54.705.204 0 .638-.28.724-.768.02-.113.03-.238.03-.374Z" fill="#fff"/></svg>