<svg width="37" height="25" fill="none" xmlns="http://www.w3.org/2000/svg"><path fill-rule="evenodd" clip-rule="evenodd" d="M18.25 17.6a7.822 7.822 0 0 1-4.5 1.4c-4.142 0-7.5-3.134-7.5-7s3.358-7 7.5-7c1.688 0 3.247.52 4.5 1.4a7.823 7.823 0 0 1 4.5-1.4c4.142 0 7.5 3.134 7.5 7s-3.358 7-7.5 7a7.822 7.822 0 0 1-4.5-1.4Z" fill="#ED0006"/><path fill-rule="evenodd" clip-rule="evenodd" d="M18.25 17.6c1.822-1.277 3-3.31 3-5.6 0-2.29-1.178-4.323-3-5.6a7.823 7.823 0 0 1 4.5-1.4c4.142 0 7.5 3.134 7.5 7s-3.358 7-7.5 7a7.822 7.822 0 0 1-4.5-1.4Z" fill="#F9A000"/><path fill-rule="evenodd" clip-rule="evenodd" d="M17.75 17.362A6.985 6.985 0 0 0 20.25 12a6.985 6.985 0 0 0-2.5-5.362A6.985 6.985 0 0 0 15.25 12c0 2.152.971 4.078 2.5 5.362Z" fill="#FF5E00"/></svg>