<svg width="70" height="16" fill="none" xmlns="http://www.w3.org/2000/svg"><path d="M61.962 0a7.97 7.97 0 0 1 3.502.81c.167.076.335.168.502.26l-.731.657L64.139.581l-1.887 1.68-1.112-1.207-3.471 3.133 2.222 2.46-.867.765 2.192 2.46-.867.764 3.136 3.5 1.856-1.712 1.615 1.834c-.32.245-.67.49-1.05.704A7.933 7.933 0 0 1 61.976 16C57.577 16 54 12.41 54 7.993 53.984 3.607 57.562 0 61.962 0ZM60.5 7.504l1.903-1.712 1.706 1.91-1.904 1.712-1.705-1.91Zm1.355 3.3 1.888-1.726 1.72 1.91L63.56 12.7l-1.705-1.895ZM59.146 4.25l1.903-1.712 1.705 1.91L60.85 6.16l-1.704-1.91Zm3.486-.918 1.416-1.283 1.279 1.421-1.416 1.299-1.28-1.437Zm2.527 5.884 1.416-1.284 1.279 1.437-1.416 1.284-1.279-1.437Zm1.248 2.889 1.416-1.284 1.278 1.421-1.415 1.299-1.279-1.436Zm.579-6.602.944-.856.852.948-.944.855-.852-.947Zm-1.218-2.828.944-.87.853.962-.945.856-.852-.948Zm2.42 5.655.944-.856.868.948-.959.855-.852-.947Zm-4.247-2.124 1.416-1.284 1.279 1.421-1.416 1.284-1.279-1.421Z" fill="#0C4BA0"/><mask id="a" style="mask-type:alpha" maskUnits="userSpaceOnUse" x="0" y="4" width="8" height="7"><path d="M0 4v7h8V4H0Z" fill="#fff"/></mask><g mask="url(#a)"><path d="M4.015 6.073h-.07L2.65 11H1.59L0 4h1.1l1.099 5.223h.068L3.543 4h.874l1.364 5.223h.07L6.85 4H8l-1.59 7H5.35L4.014 6.073Z" fill="#0C4BA0"/></g><path d="M9.98 8.45h2.134c-.046-1.202-.522-1.682-1.026-1.682-.568 0-1.007.538-1.109 1.682Zm2.88 2.153v.87c-.42.298-.979.527-1.65.527C9.642 12 9 10.81 9 9c0-1.74.718-3 2.116-3C12.282 6 13 6.928 13 8.794v.423H9.96c0 1.374.457 1.981 1.418 1.981.503 0 .97-.218 1.482-.595ZM15.958 10.108c.298.145.624.167.857.167.688 0 1.208-.478 1.208-2.156 0-1.316-.428-1.741-1.05-1.741-.373 0-.643.114-1.015.342v3.388Zm.01-4.155c.278-.165.753-.384 1.255-.384 1.154 0 1.777.892 1.777 2.55C19 10.057 18.163 11 16.815 11c-.494 0-1.257-.176-1.815-.509V3.26L15.968 3v2.953ZM23.51 9.519h.051L25.738 4H27v7h-1.099V5.925h-.091L23.733 11h-.65l-2.077-4.956h-.091V11H20V4h1.231l2.279 5.519ZM31.848 9c0-1.545-.603-2.198-1.348-2.198-.724 0-1.35.653-1.35 2.198 0 1.569.572 2.198 1.35 2.198.778 0 1.348-.63 1.348-2.198ZM28 9c0-2.004 1.053-3 2.5-3 1.448 0 2.5.996 2.5 3 0 1.958-.998 3-2.5 3S28 10.958 28 9ZM34 6.723C34.429 6.46 35.334 6 36.43 6 37.571 6 38 6.46 38 7.465V11h-.99V7.69c0-.772-.37-.908-.857-.908-.38 0-.867.176-1.162.351V11H34V6.723ZM39.979 8.45h2.134c-.045-1.202-.521-1.682-1.025-1.682-.569 0-1.006.538-1.11 1.682Zm2.88 2.153v.87c-.42.298-.979.527-1.65.527C39.644 12 39 10.81 39 9c0-1.74.718-3 2.116-3C42.282 6 43 6.928 43 8.794v.423h-3.04c0 1.374.457 1.981 1.417 1.981.503 0 .97-.218 1.482-.595ZM47.85 6H49l-1.947 4.93c-.538 1.36-1.193 2.07-2.43 2.07v-.808c.732 0 1.183-.533 1.442-1.263L44 6h1.183l1.376 3.628h.065L47.849 6Z" fill="#0C4BA0"/></svg>