<svg width="10" height="10" viewBox="0 0 10 10" fill="none" xmlns="http://www.w3.org/2000/svg">
<path fill-rule="evenodd" clip-rule="evenodd" d="M5 10C7.76142 10 10 7.76142 10 5C10 2.23858 7.76142 0 5 0C2.23858 0 0 2.23858 0 5C0 7.76142 2.23858 10 5 10ZM3.00285 3.54791C2.9797 3.69528 3.10075 3.82002 3.25022 3.82002H3.25075H3.65969C3.79759 3.82002 3.90917 3.71107 3.94391 3.57739C4.06391 3.11791 4.43285 2.83949 4.96391 2.83949C5.57864 2.83949 5.97759 3.21791 5.97759 3.73318C5.97759 4.20318 5.78443 4.46791 5.24233 4.80055C4.62759 5.17476 4.35391 5.58528 4.37654 6.22791L4.37812 6.33318C4.37881 6.40251 4.40684 6.46877 4.45612 6.51756C4.50539 6.56634 4.57193 6.59371 4.64127 6.5937H5.04654C5.11633 6.5937 5.18327 6.56598 5.23262 6.51663C5.28197 6.46727 5.3097 6.40034 5.3097 6.33054V6.31476C5.3097 5.84528 5.47496 5.6037 6.05391 5.25686C6.64601 4.89633 6.99601 4.39949 6.99601 3.69212C6.99601 2.71581 6.19759 2.00002 5.01338 2.00002C3.82969 2.00002 3.14759 2.65265 3.00285 3.54791ZM5.41654 7.74212C5.41654 8.06633 5.16759 8.31581 4.84022 8.31581C4.52127 8.31581 4.26812 8.06633 4.26812 7.7416C4.26812 7.41686 4.52127 7.16739 4.84022 7.16739C5.16759 7.16739 5.41654 7.41686 5.41654 7.74212Z" fill="#0C4BA0"/>
</svg>
