<svg width="10" height="10" viewBox="0 0 10 10" fill="none" xmlns="http://www.w3.org/2000/svg">
<path fill-rule="evenodd" clip-rule="evenodd" d="M5 10C7.76142 10 10 7.76142 10 5C10 2.23858 7.76142 0 5 0C2.23858 0 0 2.23858 0 5C0 7.76142 2.23858 10 5 10ZM3.00236 3.54789C2.97921 3.69526 3.10026 3.82 3.24973 3.82H3.25026H3.65921C3.7971 3.82 3.90868 3.71105 3.94342 3.57737C4.06342 3.11789 4.43236 2.83947 4.96342 2.83947C5.57815 2.83947 5.9771 3.21789 5.9771 3.73316C5.9771 4.20316 5.78394 4.46789 5.24184 4.80053C4.6271 5.17474 4.35342 5.58526 4.37605 6.22789L4.37763 6.33316C4.37832 6.40249 4.40635 6.46876 4.45563 6.51754C4.50491 6.56632 4.57144 6.59369 4.64078 6.59368H5.04605C5.11584 6.59368 5.18278 6.56596 5.23213 6.51661C5.28148 6.46726 5.30921 6.40032 5.30921 6.33053V6.31474C5.30921 5.84526 5.47447 5.60368 6.05342 5.25684C6.64552 4.89632 6.99552 4.39947 6.99552 3.69211C6.99552 2.71579 6.1971 2 5.01289 2C3.82921 2 3.1471 2.65263 3.00236 3.54789ZM5.41605 7.7421C5.41605 8.06632 5.1671 8.31579 4.83973 8.31579C4.52078 8.31579 4.26763 8.06632 4.26763 7.74158C4.26763 7.41684 4.52078 7.16737 4.83973 7.16737C5.1671 7.16737 5.41605 7.41684 5.41605 7.7421Z" fill="#C4C4C4"/>
</svg>
